<?xml version="1.0" encoding="UTF-8"?>
<svg enable-background="new 234.9 90 425.4 791.8" version="1.1" viewBox="234.9 90 425.4 791.8" xml:space="preserve" xmlns="http://www.w3.org/2000/svg">
<g fill="#fff">
	<path d="m251.2 502.2c4 0 8.2-1.6 11.3-4.7l392.7-379.5c6.5-6.2 6.6-16.6 0.5-23-6.2-6.5-16.6-6.6-23-0.5l-392.7 379.5c-6.5 6.2-6.6 16.6-0.5 23 3.2 3.7 7.3 5.2 11.7 5.2z"/>
	<path d="m644 881.8c4.3 0 8.5-1.7 11.8-4.9 6.2-6.5 6.1-16.8-0.5-23l-392.8-379.7c-6.5-6.2-16.8-6.1-23 0.5-6.2 6.5-6.1 16.8 0.5 23l392.8 379.6c3 2.9 7.2 4.5 11.2 4.5z"/>
</g>
</svg>
