<?xml version="1.0" encoding="UTF-8"?>
<svg enable-background="new 0 0 30 30" version="1.1" viewBox="0 0 30 30" xml:space="preserve" xmlns="http://www.w3.org/2000/svg">
<path d="m15 0c-8.3 0-15 6.7-15 15s6.7 15 15 15 15-6.7 15-15-6.7-15-15-15zm-1.2 7.1c0-0.1 0-0.2 0.1-0.3s0.2-0.1 0.3-0.1c3.5 0.1 6.8 2.4 8.1 5.7 0.3 0.9 0.5 1.8 0.6 2.7v0.4 0.3c0 0.1-0.2 0.2-0.3 0.2s-0.2-0.1-0.3-0.2-0.1-0.2-0.1-0.3c-0.1-0.7-0.1-1.3-0.3-2-0.4-1.7-1.4-3.2-2.8-4.3-1.5-1.2-3.2-1.6-5-1.8-0.1 0-0.2 0-0.3-0.1 0 0-0.1-0.1 0-0.2zm0.5 2.1c0.1 0 0.1 0 0 0 3.4 0.1 6.1 2.9 6.2 6.2 0 0.3 0 0.5-0.3 0.6-0.4 0-0.4-0.3-0.4-0.5-0.2-2.8-1.9-4.7-4.4-5.4-0.3-0.1-0.7-0.1-1-0.1s-0.6 0-0.6-0.4 0.2-0.4 0.5-0.4zm8.4 13.1c-0.3 0.3-0.6 0.7-1 1-1.6 1.5-3.6 1.9-5.6 0.9-1.1-0.5-2.1-1.2-2.9-2-2-2-4-3.9-5.9-5.9-1.3-1.3-2.4-3-2.5-4.8v-1c0.2-1.7 1.2-2.9 2.4-3.9 0.6-0.6 1.4-0.7 2.1-0.2 0.3 0.2 0.7 0.5 0.9 0.8 0.6 0.8 1.2 1.5 1.7 2.4 0.5 0.7 0.4 1.6-0.4 2-0.3 0.2-0.5 0.4-0.7 0.6-0.7 0.7-0.8 1.5-0.1 2.2 1.4 1.5 2.8 2.9 4.3 4.3 0.6 0.6 1.5 0.6 2.1-0.1 0.3-0.3 0.5-0.6 0.8-0.9 0.5-0.6 1-0.8 1.7-0.4 1.3 0.6 2.5 1.5 3.3 2.7 0.6 0.8 0.5 1.6-0.2 2.3zm2.6-6.5c0 0.1-0.1 0.1-0.1 0.2-0.2 0.1-0.3 0-0.4-0.2s-0.1-0.3-0.1-0.5c-0.1-2-0.7-3.9-1.8-5.5s-2.6-2.9-4.4-3.7c-0.7-0.3-1.3-0.5-2-0.7s-1.4-0.1-2.2-0.3c-0.2 0-0.4-0.2-0.4-0.4 0.1-0.2 0.4-0.2 0.6-0.2 2.1 0 4.2 0.7 5.9 1.8 1.5 1 2.8 2.4 3.7 4 0.3 0.5 0.6 1.1 0.8 1.7 0.4 1.1 0.6 2.3 0.6 3.4-0.2 0.1-0.2 0.2-0.2 0.4z" fill="#fff"/>
</svg>
