<?xml version="1.0" encoding="UTF-8"?>
<svg enable-background="new 0 0 30 30" version="1.1" viewBox="0 0 30 30" xml:space="preserve" xmlns="http://www.w3.org/2000/svg">
<g fill="#fff">
	<path d="m19.5 8h-8.9c-1.4 0-2.6 1.2-2.6 2.6v8.9c0 1.4 1.2 2.6 2.6 2.6h8.9c1.4 0 2.6-1.2 2.6-2.6v-8.9c0-1.5-1.2-2.6-2.6-2.6zm-4.5 11.7c-2.6 0-4.6-2.1-4.6-4.6 0-2.6 2.1-4.6 4.6-4.6 2.6 0 4.6 2.1 4.6 4.6s-2 4.6-4.6 4.6zm4.8-8.3c-0.6 0-1.1-0.5-1.1-1.1s0.5-1.1 1.1-1.1 1.1 0.5 1.1 1.1-0.5 1.1-1.1 1.1z"/>
	<path d="m15 12.4c-1.5 0-2.7 1.2-2.7 2.7s1.2 2.7 2.7 2.7 2.7-1.2 2.7-2.7-1.2-2.7-2.7-2.7z"/>
	<path d="M15,0C6.7,0,0,6.7,0,15s6.7,15,15,15s15-6.7,15-15S23.3,0,15,0z M24,19.5c0,2.5-2,4.6-4.6,4.6h-8.9   C8,24.1,6,22,6,19.5v-8.9C6,8.1,8,6,10.5,6h8.9c2.5,0,4.6,2,4.6,4.6V19.5z"/>
</g>
</svg>
