<?xml version="1.0" encoding="UTF-8"?>
<svg enable-background="new 0 0 245.2 211.2" version="1.1" viewBox="0 0 245.2 211.2" xml:space="preserve" xmlns="http://www.w3.org/2000/svg">
<g fill="#fff">
		<path d="m23.9 82.6c10.4-44.8 50.7-78.3 98.6-78.3s88.2 33.5 98.7 78.3h4.4c-10.6-47.2-52.8-82.6-103.1-82.6s-92.5 35.4-103 82.6h4.4z"/>
		<path d="m220.5 131.4c-11.4 43.4-51 75.5-98 75.5-46.9 0-86.5-32.1-98-75.5h-4.4c11.5 45.8 53.1 79.8 102.4 79.8s90.9-34 102.4-79.8h-4.4z"/>
		<path d="m174 79.7c0.4 0.3 0.8 0.4 1.1 0.4 0.4 0 0.8-0.1 1.1-0.4 0.5-0.4 0.8-0.8 1-1.4 0.1-0.3 0.3-0.5 0.7-0.8 1-0.7 2.2-1.1 3.4-1.2h0.9c1 0 2 0.1 3 0.3h0.3c0.3 0 0.7-0.1 0.9-0.4 0.3-0.3 0.5-0.6 0.6-1 0.1-0.8-0.3-1.3-1-1.5-0.4-0.1-0.7-0.1-1-0.1-1.1-0.1-2.2-0.2-3.3-0.2-0.5 0-1.1 0-1.7 0.1s-1.3 0.2-1.9 0.4c-0.7 0.2-1.4 0.4-2 0.7s-1.2 0.7-1.8 1.2-1 1.1-1.2 1.8c-0.1 0.7 0.2 1.5 0.9 2.1z"/>
		<path d="m192 102.6h-0.5c-0.5-0.1-1.7-0.3-2.5-0.6s-1.4-0.8-1.9-1.6c-0.6-1-0.3-1.5-0.1-1.9 0.4-0.6 1-1.1 1.8-1.3 0.5-0.2 1.1-0.3 1.6-0.3h0.2c0.5 0 1 0.1 1.5 0.1 0.3 0.1 0.7 0.2 1 0.3s0.6 0.1 0.8 0.1h0.4c0.6 0 1-0.2 1.4-0.5 0.3-0.3 0.5-0.7 0.5-1.2 0-0.4-0.1-0.8-0.3-1.2s-0.6-0.7-1-0.9h-0.1-0.1c-0.6-0.1-1.2-0.2-1.9-0.2h-1.1c-1.1 0.1-2 0.3-2.8 0.5-0.5 0-0.9 0.1-1.3 0.3-2.6 0.9-5.3 1.9-7.8 2.9-2.5 1.1-4.9 2.4-7.6 3.2-0.6 0.2-1.2 0.3-1.8 0.3h-0.1c-0.1-0.3-0.1-0.7 0-1.2 0.2-0.8 0.5-1.5 0.7-2.1v-0.1c0.1-0.3 0.3-0.7 0.5-1 0.3-0.5 0.6-1 0.7-1.5 0.1-0.6 0.1-1.3-0.4-1.7-0.7-0.8-2-0.5-2.8-0.2-1.3 0.4-2.6 0.8-3.9 1.1-1 0.3-2 0.6-3.1 0.9-2 0.6-4.1 1.3-6.1 2.1l-2.4 0.9-0.4 0.2c0-0.2 0-0.4-0.1-0.5-0.2-0.8-0.9-1.4-1.9-2-0.2-0.1-0.4-0.2-1.2-0.4-0.5-0.1-1-0.2-1.5-0.4-0.3-0.1-0.5-0.2-0.7-0.3h0.2c0.5-0.1 0.9-0.3 1.3-0.5s0.8-0.5 1.1-0.8 0.6-0.9 0-2c-0.2-0.3-0.5-0.5-1-0.7-0.2-0.1-0.5-0.1-0.7-0.1s-0.3 0-0.5 0.1c-0.8 0.1-1.8 0.3-2.8 0.8-1 0.4-2.1 0.9-3.1 1.4s-2 1-2.8 1.5l-1.3 0.8c-0.1 0-0.2 0.1-0.3 0.1-0.5 0.2-0.8 0.4-1.2 0.6-1.6 0.9-3.4 1.6-5.3 2.3-0.4 0.1-1 0.3-1.7 0.5-0.2 0.1-0.5 0.1-0.7 0.1h-0.3c0-0.3 0-0.6 0.1-0.9 0.2-0.6 0.4-1 0.6-1.4s0.4-0.7 0.7-1.1c0.3-0.5 0.6-1 0.7-1.5 0.1-0.8-0.2-1.5-0.8-1.9-0.3-0.2-0.7-0.3-1-0.3-0.4 0-0.7 0.1-1.1 0.4-0.9 0.7-2 1.4-3.1 2.1-2.1 1.3-4.2 2.4-6.3 3.4-0.7 0.3-1.5 0.6-2.4 1-0.5 0.2-1 0.4-1.4 0.5 0.1-0.4 0.3-0.9 0.7-1.3 0.6-0.8 1.2-1.5 1.9-2.2 0.2-0.2 0.4-0.4 0.8-0.7s0.7-0.7 1.1-1c0.4-0.4 0.6-0.8 0.8-1.2s0.3-1-0.2-1.8c-0.3-0.5-0.9-0.8-1.5-0.8-0.2 0-0.3 0-0.5 0.1-0.9 0.2-1.8 0.6-2.5 1.1-1.1 0.7-7.5 2.9-9.5 3.8-3.3 1.5-6.6 3.1-10.1 4.2-1.2 0.4-2.4 0.7-3.6 1-0.9 0.2-1.9 0.3-2.8 0.3h-0.7c-0.5 0-0.8-0.1-1-0.3s-0.3-0.4-0.4-0.7-0.1-0.7-0.1-1.1 0.1-0.9 0.2-1.3c0.5-2 1.3-3.8 2.4-5.6s2.3-3.5 3.7-5.1 2.8-3.2 4.4-4.8c1.5-1.5 3-3 4.5-4.6l1.6-1.6c0.8-0.7 1.2-1.6 1.4-2.4 0.2-1-0.2-1.6-0.6-1.8-0.4-0.3-0.9-0.5-1.6-0.5-0.5 0-1 0.1-1.5 0.2s-0.9 0.2-1.2 0.3c-2.4 0.8-4.7 1.9-6.8 3.5-2.1 1.5-4.1 3.1-6 4.6-2.3 1.9-4.6 3.8-6.7 5.8-0.3 0.3-0.7 0.6-1 0.9 1.1-1.5 2.3-3 3.5-4.5 1.6-2 3.1-4.1 4.4-6.2 0.6-0.9 1-1.9 1.4-2.9 0.4-1.1 0.6-2.3 0.3-3.5-0.3-1.4-1-2.3-2.1-2.8-0.8-0.4-1.7-0.6-2.7-0.6h-0.6c-2.4 0.2-4.7 0.8-7 2-2.2 1.1-4.3 2.3-6.2 3.5-2.1 1.4-4.2 3-6.1 4.6s-3.8 3.3-5.6 5.1c-1.9 1.8-3.7 3.6-5.5 5.5-1.3 1.4-2.6 2.9-3.9 4.5-0.1-0.6-0.2-1.1-0.4-1.7-0.2-0.5-0.6-1-1.2-1.2-0.2-0.1-0.5-0.1-0.7-0.1-0.4 0-0.8 0.1-1.2 0.4-0.5 0.4-0.7 0.9-0.7 1.3v1.1c0.1 0.4 0.1 0.8 0.3 1.1 0.1 0.3 0.1 0.5 0.1 0.6 0 1.5-0.2 3-0.8 4.3-0.7 1.8-4.5 6.3-6.2 6.4-4.9 0.1-14.3 0.1-20 0.1h-4.9-0.3-1.2-8.7c-0.3 0-1.1 0.5-1.4 0.8 0 0-2.7 2.4-2.6 2.4h39.2c1.7 0 3.4-1.2 4.4-2.5 2.9-3.7 8.7-11 9.1-11.6 3.9-4.8 8.3-9.3 13.1-13.3 2-1.7 4.2-3.2 6.4-4.6s4.5-2.5 6.9-3.4c0.4-0.1 0.9-0.3 1.6-0.6 0.6-0.2 1.2-0.4 1.9-0.6 0.6-0.1 1.2-0.2 1.8-0.2 0.5 0 0.9 0.1 1.2 0.3 0.1 0 0.2 0.2 0.2 0.6 0 0.5-0.2 1-0.4 1.6s-0.5 1.1-0.8 1.7-0.6 1-0.7 1.3c-0.8 1.4-1.6 2.7-2.6 4s-1.9 2.6-2.8 3.9l-4.8 6.8c-1.5 2.2-3.2 4.5-4.9 6.8l-2.6 3.5c-0.2 0.3-0.5 0.7-1 1.3-0.6 0.7-0.9 1.4-0.8 2.1s0.4 1.2 1 1.6c0.3 0.2 0.6 0.3 0.9 0.3s0.6-0.1 0.9-0.3c0.5-0.3 0.8-0.7 1.1-1.2l0.6-0.9c3.2-4.1 6.8-8.1 10.5-11.9 1.8-1.8 3.7-3.6 5.6-5.3s3.9-3.4 5.9-4.9c1-0.8 2.1-1.5 3.1-2.2 1.1-0.7 2.2-1.4 3.3-2 0.5-0.3 1-0.6 1.6-0.8-0.4 0.4-0.8 0.9-1.2 1.4l-3.4 4c-1.1 1.3-2.1 2.5-3 3.5-1 1.1-1.4 1.7-1.6 1.9-1 1.3-1.9 2.7-2.9 4-1 1.4-1.8 2.9-2.4 4.5-0.3 0.6-0.5 1.2-0.8 1.9-0.2 0.7-0.4 1.5-0.4 2.2 0 0.8 0.1 1.5 0.3 2.2 0.3 0.8 0.7 1.4 1.4 1.9 0.7 0.6 1.5 0.9 2.3 1.1 0.5 0.1 0.9 0.1 1.4 0.1 0.4 0 0.7 0 1.1-0.1 0.8-0.1 1.6-0.3 2.4-0.5 0.7-0.2 1.5-0.4 2.1-0.7 1.2-0.5 2.3-0.9 3.5-1.4 5-2 9.8-4.3 14.8-6.2 0 0.1-0.1 0.1-0.1 0.2-0.8 1.2-1.8 2.8-1.6 4.3 0.1 1 0.9 1.9 1.9 2.4 1.9 0.8 3.6-0.3 5.3-1.1 2.6-1.3 5.2-2.7 7.8-4-0.5 0.9-0.7 2-0.5 3 0.1 0.7 0.5 1.6 1.9 2 0.4 0.1 0.9 0.1 1.3 0.1 0.9 0 1.7-0.2 2.6-0.6 1.1-0.5 2.1-1 3.1-1.4 1.1-0.5 2.2-1.1 3.3-1.6 2.1-0.9 4-2.2 6.1-3.2 0.3-0.1 0.6-0.3 0.9-0.4v0.1c0.2 1.3 1.6 1.9 2.7 2.2s2.9 0 3.1 1.1c0.2 0.9-2.7 2.1-3 2.2-1 0.3-2.5 0.6-2.7-0.8-0.1-0.6-0.3-1.1-0.7-1.4-0.3-0.2-0.6-0.3-1-0.3h-0.4c-0.5 0.1-0.9 0.3-1.2 0.7-0.2 0.3-0.5 0.8-0.4 1.5 0 1 0.5 1.9 1.3 2.6s1.8 1.1 2.9 1.1c1.3 0 2.7-0.3 3.9-0.8s2.4-1.1 3.8-1.7c4.7-2.3 11.8-4.5 14.7-4.7 0.1 0.5-0.1 0.8-0.2 1.3-0.3 1-0.4 2-0.4 2.9 0 1 0.2 1.8 0.7 2.5 0.3 0.4 0.9 1 2 1 0.2 0 0.4 0 0.7-0.1 1.1-0.2 2.3-0.6 3.3-1.1l3-1.5c0.1 0 0.4-0.2 1.2-0.5 1-0.4 2-0.9 3-1.3 0.5-0.2 1-0.5 1.5-0.7 0.2-0.1 1.3-0.4 1.4-0.6-0.1 0.5-0.1 1-0.1 1.5 0.1 1 0.4 1.9 1 2.7 1 1.4 2.5 2.6 4.2 2.8 4.3 0.7 9.3 0.1 13.7 0.1h15.2c8.5 0 16.9 0 25.4-0.1 0.2 0 2.2-0.2 2.3 0l-1.8-2.8c-0.1-0.1-0.2-0.2-0.4-0.2l-51-0.1z"/>
		<path d="m92.8 115.7v18.3h-2.5v-13.7l-6.1 9.7-6.1-9.7v13.7h-2.5v-18.3h2.5l6.1 9.7 6.1-9.7h2.5z"/>
		<path d="m106.4 115.2c1.3 0 2.6 0.3 3.8 0.8s2.2 1.2 3.1 2.1 1.6 1.9 2.1 3.1 0.8 2.4 0.8 3.7-0.3 2.6-0.8 3.7c-0.5 1.2-1.2 2.2-2.1 3.1s-1.9 1.6-3.1 2.1-2.4 0.8-3.8 0.8c-1.3 0-2.6-0.3-3.8-0.8s-2.2-1.2-3.1-2.1-1.6-1.9-2.1-3.1-0.8-2.4-0.8-3.7 0.3-2.6 0.8-3.7c0.5-1.2 1.2-2.2 2.1-3.1s1.9-1.6 3.1-2.1c1.2-0.6 2.4-0.8 3.8-0.8zm0 16.8c1 0 1.9-0.2 2.8-0.6s1.6-0.9 2.3-1.5c0.6-0.7 1.2-1.4 1.5-2.3 0.4-0.9 0.6-1.8 0.6-2.8s-0.2-1.9-0.6-2.8-0.9-1.6-1.5-2.3-1.4-1.2-2.3-1.6-1.8-0.6-2.8-0.6-1.9 0.2-2.8 0.6-1.6 0.9-2.3 1.6c-0.6 0.7-1.2 1.4-1.5 2.3-0.4 0.9-0.6 1.8-0.6 2.8s0.2 1.9 0.6 2.8 0.9 1.6 1.5 2.3 1.4 1.2 2.3 1.5c0.8 0.4 1.8 0.6 2.8 0.6z"/>
		<path d="m133.8 115.7v18.3h-2.4l-9.2-13.9v13.9h-2.5v-18.3h2.4l9.2 13.8v-13.8h2.5z"/>
		<path d="m144 115.7c1.3 0 2.4 0.2 3.6 0.7 1.1 0.5 2.1 1.1 2.9 2 0.8 0.8 1.5 1.8 2 2.9s0.7 2.3 0.7 3.5c0 1.3-0.2 2.4-0.7 3.5s-1.1 2.1-2 2.9c-0.8 0.8-1.8 1.5-2.9 2s-2.3 0.7-3.6 0.7h-5.2v-18.3h5.2zm0 15.8c0.9 0 1.8-0.2 2.6-0.5 0.8-0.4 1.5-0.8 2.1-1.4s1.1-1.3 1.4-2.1 0.5-1.7 0.5-2.6-0.2-1.8-0.5-2.6c-0.4-0.8-0.8-1.5-1.4-2.1s-1.3-1.1-2.1-1.4c-0.8-0.4-1.7-0.5-2.6-0.5h-2.8v13.5h2.8z"/>
		<path d="m159.6 118.1v5.5h9.1v2.4h-9.1v5.5h9.8v2.4h-12.3v-18.3h12.3v2.4h-9.8z"/>
</g>
</svg>
