<?xml version="1.0" encoding="UTF-8"?>
<svg enable-background="new 0 0 81.6 70.3" version="1.1" viewBox="0 0 81.6 70.3" xml:space="preserve" xmlns="http://www.w3.org/2000/svg">
<g fill="#231F20">
		<path d="M7.9,27.5C11.4,12.6,24.8,1.4,40.8,1.4c16,0,29.4,11.1,32.8,26.1h1.5C71.6,11.8,57.5,0,40.8,0    S10,11.8,6.5,27.5H7.9z"/>
		<path d="m73.4 43.7c-3.8 14.4-17 25.1-32.6 25.1-15.6 0.1-28.8-10.6-32.6-25.1h-1.5c3.8 15.3 17.7 26.6 34.1 26.6s30.2-11.3 34.1-26.6h-1.5z"/>
		<path d="m57.9 26.5c0.1 0.1 0.3 0.1 0.4 0.1s0.3 0 0.4-0.1c0.2-0.1 0.3-0.3 0.3-0.5 0-0.1 0.1-0.2 0.2-0.3 0.3-0.2 0.7-0.4 1.1-0.4h0.3c0.3 0 0.7 0 1 0.1h0.1c0.1 0 0.2 0 0.3-0.1s0.2-0.2 0.2-0.3c0-0.3-0.1-0.4-0.3-0.5h-0.3c-0.4 0-0.7-0.1-1.1-0.1h-0.6c-0.2 0-0.4 0.1-0.6 0.1-0.2 0.1-0.5 0.1-0.7 0.2s-0.4 0.2-0.6 0.4-0.3 0.4-0.4 0.6c0 0.4 0.1 0.6 0.3 0.8z"/>
		<path d="m63.9 34.1h-0.2c-0.2 0-0.6-0.1-0.8-0.2-0.3-0.1-0.5-0.3-0.6-0.5-0.2-0.3-0.1-0.5 0-0.6 0.1-0.2 0.3-0.4 0.6-0.4 0.2-0.1 0.4-0.1 0.5-0.1h0.1 0.5c0.1 0 0.2 0.1 0.3 0.1h0.3 0.1c0.2 0 0.3-0.1 0.5-0.2 0.1-0.1 0.2-0.2 0.2-0.4 0-0.1 0-0.3-0.1-0.4l-0.3-0.3c-0.2 0-0.4-0.1-0.6-0.1h-0.4c-0.4 0-0.7 0.1-0.9 0.2-0.2 0-0.3 0-0.4 0.1-0.9 0.3-1.7 0.6-2.6 1-0.8 0.4-1.6 0.8-2.5 1.1-0.2 0.1-0.4 0.1-0.6 0.1v-0.4c0.1-0.3 0.2-0.5 0.2-0.7 0-0.1 0.1-0.2 0.2-0.3 0.1-0.2 0.2-0.3 0.2-0.5s0-0.4-0.1-0.6c-0.2-0.3-0.7-0.2-0.9-0.1-0.4 0.1-0.9 0.3-1.3 0.4-0.3 0.1-0.7 0.2-1 0.3-0.7 0.2-1.4 0.4-2 0.7l-0.8 0.3h-0.5v-0.2c-0.1-0.3-0.3-0.5-0.6-0.7-0.1 0-0.1-0.1-0.4-0.1-0.2 0-0.3-0.1-0.5-0.1-0.1 0-0.2-0.1-0.2-0.1h0.1c0.2 0 0.3-0.1 0.4-0.2s0.3-0.2 0.4-0.3 0.2-0.3 0-0.7c-0.1-0.1-0.2-0.2-0.3-0.2h-0.2-0.2c-0.3 0-0.6 0.1-0.9 0.3-0.3 0.1-0.7 0.3-1 0.5s-0.7 0.3-0.9 0.5l-0.4 0.3h-0.1c-0.1 0.1-0.3 0.1-0.4 0.2-0.5 0.3-1.1 0.5-1.7 0.8-0.1 0-0.3 0.1-0.6 0.2h-0.2-0.1v-0.3c0.1-0.2 0.1-0.3 0.2-0.5 0.1-0.1 0.1-0.2 0.2-0.4s0.2-0.3 0.2-0.5c0-0.3-0.1-0.5-0.3-0.6-0.1-0.1-0.2-0.1-0.3-0.1s-0.2 0-0.4 0.1c-0.3 0.2-0.7 0.5-1 0.7-0.7 0.4-1.4 0.8-2.1 1.1-0.2 0.1-0.5 0.2-0.8 0.3-0.2 0.1-0.3 0.1-0.5 0.2 0-0.1 0.1-0.3 0.2-0.4 0.2-0.3 0.4-0.5 0.6-0.7 0.1-0.1 0.1-0.1 0.3-0.2 0.1-0.1 0.2-0.2 0.4-0.3 0.1-0.1 0.2-0.3 0.3-0.4s0.1-0.3-0.1-0.6c-0.1-0.2-0.3-0.3-0.5-0.3h-0.2c-0.3 0.1-0.6 0.2-0.8 0.4-0.4 0.2-2.5 1-3.2 1.3-1.4 0.4-2.4 1-3.6 1.4l-1.2 0.3c-0.3 0.1-0.6 0.1-0.9 0.1h-0.2c-0.2 0-0.3 0-0.3-0.1-0.2-0.1-0.2-0.1-0.2-0.2v-0.4c0-0.1 0-0.3 0.1-0.4 0.2-0.7 0.4-1.3 0.8-1.9s0.8-1.2 1.2-1.7c0.5-0.5 0.9-1.1 1.5-1.6l1.5-1.5 0.5-0.5c0.3-0.2 0.4-0.5 0.5-0.8s-0.1-0.5-0.2-0.6-0.3-0.2-0.5-0.2-0.3 0-0.5 0.1c-0.2 0-0.3 0.1-0.4 0.1-0.8 0.3-1.6 0.6-2.3 1.2-0.7 0.5-1.4 1-2 1.5-0.8 0.6-1.5 1.3-2.2 1.9l-0.3 0.3 1.2-1.5c0.5-0.6 1-1.3 1.5-2.1 0.2-0.3 0.3-0.6 0.5-1 0.1-0.4 0.2-0.8 0.1-1.2-0.1-0.5-0.3-0.8-0.7-0.9-0.3-0.1-0.6-0.2-0.9-0.2h-0.2c-0.8 0.1-1.6 0.3-2.3 0.6l-2.1 1.2c-0.7 0.5-1.4 1-2 1.5s-1.3 1.1-1.9 1.7l-1.8 1.8c-0.4 0.5-0.9 1-1.3 1.5 0-0.2-0.1-0.4-0.1-0.6-0.1-0.2-0.2-0.3-0.4-0.4h-0.2c-0.1 0-0.3 0-0.4 0.1-0.2 0.1-0.2 0.3-0.2 0.4v0.4c0 0.1 0 0.3 0.1 0.4v0.2c0 0.5-0.1 1-0.3 1.4-0.2 0.6-1.5 2.1-2.1 2.1h-6.7-1.6-0.1-0.4-2.9c-0.1 0-0.4 0.2-0.5 0.3l-0.9 0.8h13c0.6 0 1.1-0.4 1.5-0.8 1-1.2 2.9-3.7 3-3.9 1.3-1.6 2.8-3.1 4.4-4.4 0.7-0.6 1.4-1.1 2.1-1.5 0.7-0.5 1.5-0.8 2.3-1.1 0.1 0 0.3-0.1 0.5-0.2s0.4-0.1 0.6-0.2c0.2 0 0.4-0.1 0.6-0.1s0.3 0 0.4 0.1c0 0 0.1 0.1 0.1 0.2 0 0.2-0.1 0.3-0.1 0.5l-0.3 0.6c-0.1 0.2-0.2 0.3-0.2 0.4-0.3 0.5-0.5 0.9-0.9 1.3-0.3 0.4-0.6 0.9-0.9 1.3l-1.6 2.3c-0.5 0.7-1.1 1.5-1.6 2.3l-1 1.3c-0.1 0.1-0.2 0.2-0.3 0.4-0.2 0.2-0.3 0.5-0.3 0.7s0.1 0.4 0.3 0.5c0.1 0.1 0.2 0.1 0.3 0.1s0.2 0 0.3-0.1c0.2-0.1 0.3-0.2 0.4-0.4 0.1-0.1 0.1-0.2 0.2-0.3 1.1-1.4 2.2-2.7 3.5-4 0.6-0.6 1.2-1.2 1.9-1.8 0.6-0.6 1.3-1.1 2-1.6 0.3-0.3 0.7-0.5 1-0.7 0.4-0.2 0.7-0.5 1.1-0.7 0.2-0.1 0.3-0.2 0.5-0.3-0.1 0.1-0.3 0.3-0.4 0.5l-1.1 1.3c-0.4 0.4-0.7 0.8-1 1.2s-0.5 0.6-0.5 0.6c-0.3 0.4-0.6 0.9-1 1.3-0.3 0.5-0.6 1-0.8 1.5l-0.3 0.6c-0.1 0.2-0.1 0.5-0.1 0.7 0 0.3 0 0.5 0.1 0.7 0.1 0.3 0.2 0.5 0.4 0.6 0.2 0.2 0.5 0.3 0.8 0.4h0.5 0.4c0.3 0 0.5-0.1 0.8-0.2 0.2-0.1 0.5-0.1 0.7-0.2 0.4-0.2 0.8-0.3 1.2-0.5 1.7-0.7 3.3-1.4 4.9-2.1v0.1c-0.3 0.4-0.6 0.9-0.5 1.4 0 0.3 0.3 0.6 0.6 0.8 0.6 0.3 1.2-0.1 1.8-0.4 0.9-0.4 1.7-0.9 2.6-1.3-0.2 0.3-0.2 0.7-0.2 1 0 0.2 0.2 0.5 0.6 0.7h0.4c0.3 0 0.6-0.1 0.9-0.2 0.4-0.2 0.7-0.3 1-0.5 0.4-0.2 0.7-0.4 1.1-0.5 0.7-0.3 1.3-0.7 2-1.1 0.1 0 0.2-0.1 0.3-0.1 0.1 0.4 0.5 0.6 0.9 0.7s1 0 1 0.4c0.1 0.3-0.9 0.7-1 0.7-0.3 0.1-0.8 0.2-0.9-0.3 0-0.2-0.1-0.4-0.2-0.5s-0.2-0.1-0.3-0.1h-0.1c-0.2 0-0.3 0.1-0.4 0.2s-0.2 0.3-0.1 0.5c0 0.3 0.2 0.6 0.4 0.9 0.3 0.2 0.6 0.4 1 0.4s0.9-0.1 1.3-0.3 0.8-0.4 1.3-0.6c1.6-0.8 3.9-1.5 4.9-1.6 0 0.2 0 0.3-0.1 0.4-0.1 0.3-0.1 0.7-0.1 1s0.1 0.6 0.2 0.8c0.1 0.1 0.3 0.3 0.7 0.3h0.2c0.4-0.1 0.7-0.2 1.1-0.4 0.3-0.2 0.7-0.3 1-0.5 0 0 0.1-0.1 0.4-0.2s0.7-0.3 1-0.4c0.2-0.1 0.3-0.2 0.5-0.2 0.1 0 0.4-0.1 0.5-0.2v0.5c0 0.3 0.1 0.6 0.3 0.9 0.3 0.5 0.8 0.9 1.4 0.9 1.4 0.2 3.1 0 4.6 0h5 8.5c0.1 0 0.7-0.1 0.8 0l-0.9-0.4-0.1-0.1h-17z"/>
		<path d="m30.9 38.5v6.1h-0.8v-4.6l-2 3.2-2.1-3.2v4.6h-0.8v-6.1h0.8l2 3.2 2-3.2h0.9z"/>
		<path d="m35.4 38.3c0.4 0 0.9 0.1 1.2 0.3 0.4 0.2 0.7 0.4 1 0.7s0.5 0.6 0.7 1 0.3 0.8 0.3 1.2-0.1 0.9-0.3 1.2c-0.2 0.4-0.4 0.7-0.7 1s-0.6 0.5-1 0.7-0.8 0.3-1.2 0.3-0.9-0.1-1.3-0.3-0.7-0.4-1-0.7-0.5-0.6-0.7-1-0.3-0.8-0.3-1.2 0.1-0.9 0.3-1.2c0.2-0.4 0.4-0.7 0.7-1s0.6-0.5 1-0.7 0.9-0.3 1.3-0.3zm0 5.6c0.3 0 0.6-0.1 0.9-0.2s0.5-0.3 0.8-0.5c0.2-0.2 0.4-0.5 0.5-0.8s0.2-0.6 0.2-0.9-0.1-0.6-0.2-0.9-0.3-0.5-0.5-0.8c-0.2-0.2-0.5-0.4-0.8-0.5s-0.6-0.2-0.9-0.2-0.6 0.1-0.9 0.2-0.5 0.3-0.8 0.5c-0.2 0.2-0.4 0.5-0.5 0.8s-0.2 0.6-0.2 0.9 0.1 0.6 0.2 0.9 0.3 0.5 0.5 0.8c0.2 0.2 0.5 0.4 0.8 0.5 0.3 0.2 0.6 0.2 0.9 0.2z"/>
		<path d="m44.5 38.5v6.1h-0.8l-3-4.6v4.6h-0.8v-6.1h0.8l3 4.6v-4.6h0.8z"/>
		<path d="m47.9 38.5c0.4 0 0.8 0.1 1.2 0.2 0.4 0.2 0.7 0.4 1 0.7s0.5 0.6 0.7 1 0.2 0.8 0.2 1.2-0.1 0.8-0.2 1.2c-0.2 0.4-0.4 0.7-0.7 1s-0.6 0.5-1 0.7-0.8 0.2-1.2 0.2h-1.7v-6.1h1.7zm0 5.3c0.3 0 0.6-0.1 0.9-0.2s0.5-0.3 0.7-0.5 0.4-0.4 0.5-0.7 0.2-0.6 0.2-0.9-0.1-0.6-0.2-0.9-0.3-0.5-0.5-0.7-0.4-0.4-0.7-0.5-0.6-0.2-0.9-0.2h-0.9v4.5h0.9z"/>
		<path d="m53.1 39.3v1.8h3v0.8h-3v1.8h3.2v0.8h-4.1v-6.1h4.1v0.8h-3.2z"/>
</g>
</svg>
